HIERARCHY
ROOT Hips
{
 OFFSET 0.000000 0.000000 0.000000
 CHANNELS 6 Xposition Yposition Zposition Yrotation Xrotation Zrotation
 JOINT Chest
 {
  OFFSET 0.000000 9.585900 0.002600
  CHANNELS 3 Yrotation Xrotation Zrotation
  JOINT Chest2
  {
   OFFSET 0.000000 9.601200 -0.005300
   CHANNELS 3 Yrotation Xrotation Zrotation
   JOINT Chest3
   {
    OFFSET 0.000000 9.561800 0.000000
    CHANNELS 3 Yrotation Xrotation Zrotation
    JOINT Chest4
    {
     OFFSET 0.000000 9.552100 0.000000
     CHANNELS 3 Yrotation Xrotation Zrotation
     JOINT Neck
     {
      OFFSET 0.000000 14.453000 0.000000
      CHANNELS 3 Yrotation Xrotation Zrotation
      JOINT Head
      {
       OFFSET 0.000000 8.936500 -0.011300
       CHANNELS 3 Yrotation Xrotation Zrotation
       End Site
       {
        OFFSET 0.000000 17.073600 -0.006000
       }
      }
     }
     JOINT RightCollar
     {
      OFFSET -2.921100 9.558500 0.000000
      CHANNELS 3 Yrotation Xrotation Zrotation
      JOINT RightShoulder
      {
       OFFSET -13.519700 0.000000 0.000000
       CHANNELS 3 Yrotation Xrotation Zrotation
       JOINT RightElbow
       {
        OFFSET 0.000000 -29.696600 0.000000
        CHANNELS 3 Yrotation Xrotation Zrotation
        JOINT RightWrist
        {
         OFFSET 0.000000 -24.004700 0.000000
         CHANNELS 3 Yrotation Xrotation Zrotation
         End Site
         {
          OFFSET 0.000000 -17.728500 0.000000
         }
        }
       }
      }
     }
     JOINT LeftCollar
     {
      OFFSET 2.921100 9.558500 0.000000
      CHANNELS 3 Yrotation Xrotation Zrotation
      JOINT LeftShoulder
      {
       OFFSET 13.519700 0.000000 0.000000
       CHANNELS 3 Yrotation Xrotation Zrotation
       JOINT LeftElbow
       {
        OFFSET 0.000000 -29.696600 0.000000
        CHANNELS 3 Yrotation Xrotation Zrotation
        JOINT LeftWrist
        {
         OFFSET 0.000000 -24.004700 0.000000
         CHANNELS 3 Yrotation Xrotation Zrotation
         End Site
         {
          OFFSET 0.000000 -17.728500 0.000000
         }
        }
       }
      }
     }
    }
   }
  }
 }
 JOINT RightHip
 {
  OFFSET -7.771700 -0.012900 -0.001300
  CHANNELS 3 Yrotation Xrotation Zrotation
  JOINT RightKnee
  {
   OFFSET 0.000000 -40.869800 0.001200
   CHANNELS 3 Yrotation Xrotation Zrotation
   JOINT RightAnkle
   {
    OFFSET 0.000000 -39.717900 0.002100
    CHANNELS 3 Yrotation Xrotation Zrotation
    JOINT RightToe
    {
     OFFSET 0.000000 -4.965400 11.033500
     CHANNELS 3 Yrotation Xrotation Zrotation
     End Site
     {
      OFFSET 0.000000 -1.423100 5.872300
     }
    }
   }
  }
 }
 JOINT LeftHip
 {
  OFFSET 7.771700 -0.012900 -0.001300
  CHANNELS 3 Yrotation Xrotation Zrotation
  JOINT LeftKnee
  {
   OFFSET 0.000000 -40.869800 0.001200
   CHANNELS 3 Yrotation Xrotation Zrotation
   JOINT LeftAnkle
   {
    OFFSET 0.000000 -39.717900 0.002100
    CHANNELS 3 Yrotation Xrotation Zrotation
    JOINT LeftToe
    {
     OFFSET 0.000000 -4.965400 11.033500
     CHANNELS 3 Yrotation Xrotation Zrotation
     End Site
     {
      OFFSET 0.000000 -1.423100 5.872300
     }
    }
   }
  }
 }
}
MOTION
Frames: 8
Frame Time: 0.008333
29.977323 50.016852 64.418598 173.045228 -33.310555 -7.511026 6.394360 18.724231 6.766450 0.688513 2.353368 0.573877 1.160790 3.916939 0.986555 5.432835 16.243643 4.788279 -2.441795 16.916605 1.944699 -5.184005 -4.247092 4.434637 -1.389925 -3.303560 -4.521447 5.763012 -8.626371 -4.009482 54.296934 -80.416570 -64.880431 -0.848144 -6.423805 4.258311 -11.356186 -0.379020 0.172711 7.797660 -7.501815 -1.053573 -122.466261 -76.400288 133.654845 17.250548 -3.429565 -10.416320 -1.005206 -46.845131 10.424453 -111.448416 82.459293 -98.934181 0.460264 -13.222979 -4.379289 -0.186553 1.073592 -0.080372 -9.811256 -51.049891 17.896775 -151.909078 80.183017 -159.475013 2.249421 -17.826850 7.795024 -0.441177 -0.746302 -0.204953
29.983007 50.015915 64.414424 173.055526 -33.312256 -7.520498 6.402767 18.763959 6.792747 0.699090 2.390304 0.589520 1.176647 3.979031 1.010202 5.412261 16.209165 4.769453 -2.440681 16.944508 1.966524 -5.187923 -4.194037 4.473004 -1.384186 -3.313196 -4.459214 5.790610 -8.868396 -4.069910 50.619788 -80.385694 -61.391691 -0.849515 -6.301857 4.101785 -11.396596 -0.356309 0.164054 7.705787 -7.705305 -1.204490 -121.871063 -76.828685 133.153277 17.151898 -3.183523 -10.380893 -1.026196 -46.840266 10.435186 -111.528640 82.474926 -99.004984 0.449723 -13.230820 -4.399556 -0.175049 1.078931 -0.078389 -9.835040 -51.047869 17.909947 -151.884877 80.171957 -159.452543 2.255260 -17.831732 7.789720 -0.438528 -0.746544 -0.203842
29.991016 50.015757 64.411062 173.066645 -33.312334 -7.540976 6.405785 18.782454 6.818683 0.701499 2.396146 0.591608 1.182357 4.021969 1.025959 5.418543 16.240321 4.785087 -2.435593 16.962328 1.981836 -5.182809 -4.160425 4.498533 -1.359525 -3.322047 -4.403270 5.794117 -9.094435 -4.114522 46.819656 -80.310423 -57.748210 -0.825038 -6.144935 3.974555 -11.439545 -0.329257 0.163042 7.620142 -7.876322 -1.357715 -121.530850 -77.295668 132.884069 17.028253 -2.926170 -10.377144 -1.046590 -46.837675 10.458156 -111.577643 82.481720 -99.037830 0.440160 -13.235331 -4.418036 -0.170282 1.078679 -0.074336 -9.903595 -51.045837 17.965697 -151.776759 80.150416 -159.364554 2.279828 -17.821865 7.782945 -0.435990 -0.761735 -0.202584
29.997893 50.015403 64.408908 173.073228 -33.307169 -7.550281 6.407679 18.796501 6.834344 0.707913 2.426787 0.603568 1.176687 4.041929 1.030303 5.422574 16.271840 4.800134 -2.427099 16.967506 1.989816 -5.169489 -4.150885 4.510095 -1.308970 -3.333346 -4.357046 5.790686 -9.291043 -4.139450 43.034048 -80.195364 -54.104008 -0.776985 -5.987050 3.891196 -11.481409 -0.306193 0.166367 7.532293 -8.009087 -1.508969 -121.393028 -77.755981 132.815747 16.884735 -2.673424 -10.392291 -1.057408 -46.842892 10.466035 -111.644980 82.488377 -99.088391 0.438951 -13.237343 -4.442344 -0.172909 1.075075 -0.066987 -9.974290 -51.048928 18.022804 -151.699720 80.131363 -159.316151 2.281095 -17.802124 7.783549 -0.436295 -0.780908 -0.202473
30.004128 50.015559 64.407204 173.072428 -33.306895 -7.551002 6.410343 18.836511 6.849860 0.710128 2.438331 0.607392 1.176738 4.062931 1.035365 5.424551 16.304343 4.814126 -2.427443 16.913597 1.971761 -5.160987 -4.152940 4.512311 -1.238782 -3.345528 -4.322440 5.810498 -9.449418 -4.148586 39.337772 -80.070876 -50.560094 -0.715328 -5.857035 3.858986 -11.524850 -0.290217 0.174935 7.441863 -8.103608 -1.650385 -121.365417 -78.177916 132.862243 16.733568 -2.440934 -10.413550 -1.055216 -46.849901 10.471144 -111.730524 82.489840 -99.157187 0.421269 -13.230584 -4.460629 -0.156584 1.064657 -0.061892 -9.987591 -51.050651 18.030207 -151.692999 80.124331 -159.306979 2.291338 -17.798373 7.773282 -0.432026 -0.785773 -0.201191
30.008105 50.015059 64.407429 173.062260 -33.302530 -7.535369 6.412999 18.899283 6.857842 0.715295 2.428296 0.604355 1.178383 4.080028 1.041432 5.426224 16.338404 4.828011 -2.427575 16.854753 1.950835 -5.151034 -4.162782 4.511357 -1.162251 -3.354878 -4.300790 5.874691 -9.567041 -4.148092 35.719819 -79.973157 -47.118371 -0.658951 -5.771246 3.873288 -11.570906 -0.279441 0.185572 7.346247 -8.165099 -1.773756 -121.358528 -78.540458 132.936837 16.582406 -2.239376 -10.430352 -1.045792 -46.871796 10.472067 -111.862131 82.487092 -99.284282 0.392884 -13.205599 -4.472762 -0.138297 1.037755 -0.055602 -9.972013 -51.058672 18.017878 -151.691663 80.121713 -159.302671 2.290951 -17.796564 7.767764 -0.423262 -0.786094 -0.198059
30.011258 50.014331 64.409675 173.050491 -33.297372 -7.517914 6.416758 18.916044 6.851294 0.713430 2.461827 0.614207 1.182588 4.061548 1.036720 5.434589 16.410171 4.863563 -2.402829 16.879924 1.967629 -5.107768 -4.263907 4.486113 -1.089823 -3.361975 -4.292574 5.979711 -9.647360 -4.142473 32.122214 -79.924352 -43.713174 -0.628545 -5.728349 3.927490 -11.613995 -0.276982 0.192139 7.243644 -8.198701 -1.874794 -121.329981 -78.831868 132.993890 16.433882 -2.070045 -10.441909 -1.040458 -46.889386 10.471015 -111.949746 82.491152 -99.373769 0.383918 -13.190574 -4.481813 -0.129901 1.024169 -0.055468 -9.948215 -51.069586 17.996146 -151.730971 80.125229 -159.332524 2.286565 -17.791946 7.761565 -0.407853 -0.786151 -0.196885
30.014626 50.014008 64.413515 173.036927 -33.297518 -7.505481 6.423053 18.954356 6.861428 0.710444 2.530262 0.641905 1.190140 3.991591 1.003742 5.447104 16.486352 4.901982 -2.397675 16.835790 1.954768 -5.092325 -4.357377 4.458125 -1.026336 -3.369288 -4.293765 6.093020 -9.698441 -4.132487 28.565092 -79.920903 -40.332599 -0.645932 -5.719141 4.008750 -11.648193 -0.283708 0.195554 7.146905 -8.210650 -1.955044 -121.284720 -79.050429 133.020210 16.289393 -1.926316 -10.457271 -1.041699 -46.898052 10.477560 -111.983238 82.497546 -99.409986 0.381838 -13.175681 -4.490955 -0.133047 1.014094 -0.056800 -9.918796 -51.076001 17.968835 -151.822887 80.134499 -159.410654 2.310916 -17.790597 7.745789 -0.428919 -0.786200 -0.195032
